<svg xmlns="http://www.w3.org/2000/svg" width="479" height="512" viewBox="0 0 479 512">
  <g id="show-password" transform="translate(-16.5)">
    <g id="Group_3" data-name="Group 3">
      <g id="Group_2" data-name="Group 2">
        <path id="Path_19" data-name="Path 19" d="M201.5,472H96.5a40.045,40.045,0,0,1-40-40V268a40.045,40.045,0,0,1,40-40h288a40.045,40.045,0,0,1,40,40v21a20,20,0,0,0,40,0V268a80.091,80.091,0,0,0-80-80H360.463V117.466C360.463,52.695,306.631,0,240.463,0s-120,52.695-120,117.466V188H96.5a80.091,80.091,0,0,0-80,80V432a80.091,80.091,0,0,0,80,80h105a20,20,0,0,0,0-40ZM160.463,117.466c0-42.715,35.888-77.466,80-77.466s80,34.751,80,77.466V188h-160V117.466Z" fill="red"/>
        <circle id="Ellipse_1" data-name="Ellipse 1" cx="20" cy="20" r="20" transform="translate(183.5 326)" fill="red"/>
        <path id="Path_20" data-name="Path 20" d="M491.864,403.5c-.7-1-3.115-4.415-4.614-6.3-6.7-8.422-22.376-28.146-44.193-45.558C415.085,329.319,386.3,318,357.5,318s-57.585,11.319-85.556,33.643c-21.82,17.414-37.5,37.137-44.187,45.551-1.5,1.889-3.917,5.3-4.621,6.307a20,20,0,0,0,0,22.994c.705,1,3.119,4.421,4.617,6.3,6.694,8.422,22.373,28.145,44.192,45.559C299.915,500.681,328.7,512,357.5,512s57.584-11.319,85.557-33.643c21.817-17.413,37.5-37.136,44.2-45.562,1.5-1.885,3.908-5.3,4.611-6.3A20,20,0,0,0,491.864,403.5ZM357.5,472c-29.7,0-60.841-19.164-92.642-57,31.8-37.835,62.935-57,92.642-57s60.843,19.169,92.643,57C418.342,452.835,387.206,472,357.5,472Z" fill="red"/>
        <circle id="Ellipse_2" data-name="Ellipse 2" cx="20" cy="20" r="20" transform="translate(108.5 326)" fill="red"/>
        <circle id="Ellipse_3" data-name="Ellipse 3" cx="38" cy="38" r="38" transform="translate(320.5 377)" fill="red"/>
      </g>
    </g>
  </g>
</svg>
